# xmcd
# 
# Track frame offsets:
#     150
#     10163
#     23676
#     34892
#     44328
#     54985
#     66721
#     75977
#     87601
#     98300
#     108699
#     120860
#     131691
#     142111
#     154558
#     168332
#     180214
#     191491
#     202564
#     212164
#     221128
#     232803
#     243674
#     255348
#     266042
#     276352
#     285573
#     295124
#     305263
#     315562
# 
# Disc length: 4328
# 
# Revision: 0
# Processed by: cddbd v1.5.2PL0 Copyright (c) Steve Scherf et al.
# Submitted via: fre:ac v1.0.17
# 
DISCID=9e10e61e
DTITLE=Compilation - Boys can be mean CD1
DYEAR=0
DGENRE=Blues
TTITLE0=Gettin' Mighty Crowded
TTITLE1=Ain't That Love 
TTITLE2=Take Me For A Little While 
TTITLE3=On The Corner 
TTITLE4=Spanish Boy
TTITLE5=Backfield In Motion 
TTITLE6=The Sophisticated Boom Boom 
TTITLE7=Money (That's What I Want)
TTITLE8=I Should Have Treated You Right
TTITLE9=Operator 
TTITLE10=Mr Heartbreak
TTITLE11=Nobody's Girl 
TTITLE12=Puppet 
TTITLE13=Little Bell
TTITLE14=I Wonder 
TTITLE15=Love You More Than Yesterday 
TTITLE16=I Know You'll Be There
TTITLE17=Second Best 
TTITLE18=Welcome To My Heart 
TTITLE19=Memory Lane Without You
TTITLE20=Do Wah Diddy 
TTITLE21=People Say
TTITLE22=Another Boy Like Mine
TTITLE23=No Guy 
TTITLE24=Stop
TTITLE25=The Things I Do For You 
TTITLE26=Sing A Song 
TTITLE27=That's What You Gotta Do 
TTITLE28=Bad Motorcycle
TTITLE29=Boys Can Be Mean 
EXTD=
EXTT0=
EXTT1=
EXTT2=
EXTT3=
EXTT4=
EXTT5=
EXTT6=
EXTT7=
EXTT8=
EXTT9=
EXTT10=
EXTT11=
EXTT12=
EXTT13=
EXTT14=
EXTT15=
EXTT16=
EXTT17=
EXTT18=
EXTT19=
EXTT20=
EXTT21=
EXTT22=
EXTT23=
EXTT24=
EXTT25=
EXTT26=
EXTT27=
EXTT28=
EXTT29=
PLAYORDER=
